<svg xmlns="http://www.w3.org/2000/svg" xmlns:xlink="http://www.w3.org/1999/xlink" width="500" zoomAndPan="magnify" viewBox="0 0 375 374.999991" height="500" preserveAspectRatio="xMidYMid meet" version="1.0"><defs><g/></defs><g fill="#ffffff" fill-opacity="1"><g transform="translate(109.668655, 238.718596)"><g><path d="M 16.132812 0 L 24.050781 -27.933594 C 25.394531 -32.714844 28.980469 -39.136719 32.265625 -41.527344 C 40.929688 -47.800781 50.339844 -50.789062 59.902344 -50.789062 C 76.78125 -50.789062 99.1875 -40.78125 106.507812 -24.347656 L 117.410156 0 L 130.554688 0 L 63.933594 -149.378906 L 50.789062 -149.378906 L 53.925781 -142.355469 L 2.988281 0 Z M 32.414062 -56.613281 L 53.625 -130.40625 C 54.375 -132.796875 55.269531 -133.992188 56.316406 -133.992188 C 57.210938 -133.992188 58.257812 -132.945312 59.152344 -130.855469 L 97.691406 -44.515625 C 99.484375 -40.480469 98.589844 -39.734375 95.152344 -42.574219 C 83.800781 -51.835938 69.460938 -58.554688 55.417969 -58.554688 C 48.847656 -58.554688 42.421875 -57.0625 36.449219 -53.777344 C 34.953125 -53.027344 33.910156 -52.582031 33.160156 -52.582031 C 31.816406 -52.582031 31.667969 -53.925781 32.414062 -56.613281 Z M 32.414062 -56.613281 "/></g></g></g><g fill="#ffffff" fill-opacity="1"><g transform="translate(233.204165, 238.718596)"><g><path d="M 21.808594 0 L 21.808594 -103.371094 L 9.859375 -103.371094 L 9.859375 0 Z M 1.941406 -127.121094 C 10.15625 -124.433594 12.546875 -122.640625 15.238281 -112.632812 C 15.386719 -111.882812 16.730469 -111.882812 16.878906 -112.632812 C 18.972656 -122.789062 21.957031 -124.433594 30.175781 -127.121094 C 31.21875 -127.417969 31.21875 -128.015625 30.175781 -128.316406 C 21.808594 -130.707031 19.570312 -132.945312 16.878906 -142.65625 C 16.582031 -143.703125 15.535156 -143.703125 15.238281 -142.65625 C 12.546875 -132.945312 10.15625 -131.003906 1.941406 -128.316406 C 0.894531 -128.015625 0.894531 -127.417969 1.941406 -127.121094 Z M 1.941406 -127.121094 "/></g></g></g></svg>